<?xml version="1.0" encoding="UTF-8" standalone="no"?>
<!DOCTYPE svg PUBLIC "-//W3C//DTD SVG 1.1//EN" "http://www.w3.org/Graphics/SVG/1.1/DTD/svg11.dtd">
<svg width="100%" height="100%" viewBox="0 0 432 86" version="1.1" xmlns="http://www.w3.org/2000/svg" xmlns:xlink="http://www.w3.org/1999/xlink" xml:space="preserve" xmlns:serif="http://www.serif.com/" style="fill-rule:evenodd;clip-rule:evenodd;stroke-linejoin:round;stroke-miterlimit:2;">
    <g id="Layer1">
        <g transform="matrix(1,0,0,1,-273.944,-179.6)">
            <path d="M364.3,226.9C362.8,233 361.3,239 359.2,244.9C359,245.3 358.7,245.7 358.6,246.2C358.2,246.3 358.3,246.6 358.3,246.9C357.8,246.9 357.7,247.4 357.3,247.5C356.3,247.9 355.4,248.2 354.4,248.5C352.8,249 351.6,248.5 350.3,247.8C350.1,247.5 350.3,247.3 350.4,247.1C351.8,243.4 353.2,239.6 354.5,235.9C355.2,234 355.3,232 355.7,230C355.7,229.7 355.8,229.5 355.8,229.2C356.1,229.2 356.1,229 356.1,228.7C356.1,228.2 356,227.6 356.2,227.1C356.6,225.8 356.5,224.4 356.7,223.1C356.9,222 356.5,220.8 357,219.7C357.1,219.4 357,219 356.7,218.7C355.4,217.4 354.2,215.9 352.9,214.6C352.5,214.2 352.2,214.2 351.8,214.6C351,215.4 350.3,216.2 349.4,216.9C348.2,217.9 347,218.7 345.8,219.6C344.9,220.3 344,221 343.1,221.6L338.3,224.6C337.2,225.3 336.7,225.4 336.3,224.6C335.7,223.6 334.7,222.9 334.2,221.9C333.6,221.5 333.7,221.2 334.3,220.8C338.9,217.6 342.5,213.6 345.8,209.2C350.6,202.7 353.9,195.6 355.4,187.7C355.6,186.7 356.1,185.7 356,184.6L362.9,184.6C362.8,186 362.6,187.3 362.5,188.7C362,193.9 360.9,199 359.3,204C359.2,204.4 359.2,204.6 359.5,204.9C364.9,210.4 370.4,215.8 376.6,220.4C378.1,221.5 379.8,222 381.5,222.6C383.7,223.3 386,223.9 388.3,224.4C388.9,224.5 389.1,224.8 389.2,225.4C389.2,226.3 389.3,227.2 389.5,228C389.7,228.9 389.1,229.6 389.1,230.4C388.7,230.5 388.8,230.8 388.8,231.1C388.6,231 388.5,231.2 388.4,231.4C387.7,232.6 387.3,234.3 385.3,233.3L385.1,233.3C384.4,233.3 383.8,233.1 383.2,232.9C382.1,232.6 380.9,232.4 379.8,232.1C378.7,231.8 377.5,231.8 376.5,231.4C376,231.2 375.5,231.3 375,231C374.1,230.4 373.1,229.9 372.1,229.4C369.8,228.2 367.6,226.9 365.5,225.5C365.1,225.3 364.9,225.5 364.9,225.7C364.6,226 364.2,226.4 364.3,226.9" style="fill:rgb(13,84,158);fill-rule:nonzero;"/>
        </g>
        <g transform="matrix(1,0,0,1,-273.944,-179.6)">
            <path d="M279.1,254.3C278.6,253.2 279.4,252.8 280.1,252.3C281.9,250.9 283.6,249.3 285.3,247.7C287.6,245.6 289.1,243.1 290.4,240.3C293.5,233.6 295.7,226.6 298,219.6C298.6,218.3 298.7,218.2 297.6,217.3C296.8,216.6 296.1,215.8 295.3,215C294.1,213.8 293,212.5 292,211.2C290.6,209.4 289.2,207.6 287.9,205.6C287,204.2 286,202.9 285.3,201.5C284.7,200.6 284.7,200.6 285.6,200.2C287.3,199.3 289.1,198.4 290.8,197.5C291.3,197.2 291.5,197.4 291.8,197.8C295.7,203 300.2,207.6 305.5,211.3C312.5,216.2 320,219.7 328.3,221.6C329.4,221.8 330.5,222 331.6,222.1C331.8,222.1 332.2,222.1 332.1,222.5C331.7,224.3 331.4,226.1 330.8,227.9C329,228 327.3,227.5 325.6,227.6C324.4,227.6 323.2,227.3 322,227.2C321.3,227.1 320.4,227.1 319.7,226.9C318.4,226.5 316.9,226.4 315.6,226.1C314,225.7 312.4,225.4 310.9,224.9C310.6,224.8 310.1,224.6 309.9,224.9C309.7,225.3 309.4,225.7 309.5,226.2C309,227.7 308.6,229.3 308.1,230.8C307.9,231.3 307.9,231.8 308.2,232.3C311,237 314,241.7 317.6,245.9C319.2,247.8 321.1,249.3 322.9,250.9C324.6,252.5 326.4,254.2 328.1,255.8C329.1,256.7 329.1,256.7 328.3,257.8C327.7,258.5 327,259.2 326,259.4C325.6,259.5 325.1,259.5 324.7,259.7C323.6,260.1 322.4,259.9 321.3,260C321.1,260 320.9,259.9 320.7,259.7C319.2,258.7 318,257.3 316.7,256.2C314.8,254.6 313.2,252.6 311.5,250.8C309.1,248.2 306.7,245.5 304.4,242.8C303.5,241.7 303.4,241.7 302.6,242.9C301.2,245 299.9,247.2 298.5,249.3C297.2,251.1 296,252.9 294.1,254.3C291.8,256.1 289.6,258 287.4,260C285.8,261.4 285.8,261.4 284.1,260.2C284,260.1 283.9,260.1 283.8,260C282.4,258.9 280.8,258.1 280.3,256.1C279.9,255.4 279.8,254.7 279.1,254.3" style="fill:rgb(227,46,33);fill-rule:nonzero;"/>
        </g>
        <g transform="matrix(1,0,0,1,-273.944,-179.6)">
            <path d="M303.9,201.6C304.4,198.3 306.1,195.9 309.2,194.7C312.3,193.6 315.1,194 317.6,196.2C320.1,198.4 320.8,201.2 320.1,204.5C320,205 319.8,205.5 319.7,206C319.2,206.6 318.8,207.3 318.3,207.9C316.8,209.4 315.1,210.3 312.9,210.5C310.8,210.7 308.9,210.1 307.2,208.9C305.1,207.3 304,205.1 304.1,202.4C304,202.1 304.2,201.8 303.9,201.6" style="fill:rgb(227,46,33);fill-rule:nonzero;"/>
        </g>
        <g transform="matrix(1,0,0,1,-273.944,-179.6)">
            <path d="M334,196.5C334.6,192.7 337.4,190.1 341.2,189.9C344.6,189.7 347.8,192.2 348.6,195.6C349,197.2 348.8,198.7 348.3,200.2C347.8,200.9 347.4,201.7 346.9,202.4C345.6,204 343.7,204.6 341.7,204.8C340.1,204.9 338.6,204.4 337.3,203.5C336.4,202.8 335.6,202 335,201C334.1,199.6 333.9,198.1 334,196.5" style="fill:rgb(13,84,158);fill-rule:nonzero;"/>
        </g>
    </g>
    <g id="Layer2" transform="matrix(2.376,0,0,2.376,130,28.9891)">
        <g transform="matrix(1,0,0,1,-621,-379.35)">
            <path d="M628.6,384.5L628.7,384.6L628.8,384.5C628.8,384.4 628.8,384.4 628.7,384.4L628.6,384.5M621,381.8C621.4,381.6 621.8,381.3 622.2,381.1C623.2,380.8 623.8,381.1 623.9,382.1C624,382.8 623.9,383.4 623.7,384.1C623.7,384.2 623.6,384.4 623.7,384.6C624,384.2 624.3,383.8 624.5,383.4C625,382.7 625.6,382 626.3,381.5C626.6,381.3 626.8,381.2 627.1,381.1C628.2,380.8 628.8,381.3 628.8,382.4C628.8,383 628.7,383.5 628.6,384C628.6,384.1 628.4,384.3 628.6,384.4C628.8,384.5 628.8,384.2 628.9,384.1C629.4,383.3 630,382.6 630.7,381.9C631.2,381.5 631.7,381.1 632.4,381C633.1,380.9 633.6,381.2 633.8,381.9C634,383 633.7,384 633.5,385C633.3,386 633,387 632.8,388C632.8,388.1 632.7,388.3 632.7,388.4C632.7,389 632.9,389.2 633.6,389C633.8,388.9 634,388.5 634.2,388.9C634.3,389.2 633.9,389.3 633.8,389.4C633.6,389.5 633.4,389.7 633.2,389.7C632.3,390.1 631.6,389.6 631.6,388.6C631.6,387.6 632,386.7 632.2,385.8C632.4,384.8 632.7,383.9 632.7,382.9C632.7,382.6 632.7,382.3 632.4,382.1C632.1,381.9 631.8,382.2 631.6,382.3C630.8,382.9 630.2,383.6 629.6,384.4C628.6,385.9 627.9,387.5 627.5,389.2C627.4,389.7 627.1,389.8 626.8,389.7C626.4,389.6 626.3,389.3 626.4,389C626.8,387.4 627.2,385.7 627.5,384.1C627.6,383.7 627.7,383.2 627.7,382.7C627.7,382 627.4,381.8 626.8,382.2C626.4,382.4 626.1,382.7 625.8,383C624.1,384.8 623,386.9 622.4,389.2C622.3,389.7 622.1,389.8 621.7,389.7C621.3,389.6 621.3,389.2 621.4,388.9C621.7,387.5 622.1,386.1 622.5,384.6C622.7,383.9 622.9,383.2 622.9,382.4C622.9,381.6 622.7,381.4 622,381.8C621.7,382 621.4,381.9 621.2,381.7L621.2,381.8L621,381.8Z" style="fill:rgb(29,29,27);fill-rule:nonzero;"/>
        </g>
        <g transform="matrix(1,0,0,1,-621,-379.35)">
            <path d="M746,381.5C745.3,381.5 745.2,381.7 745,382.4C744.7,384.3 744.3,386.3 744,388.2C744,388.4 744,388.5 743.9,388.7C743.9,389.1 743.9,389.3 744.4,389.4C744.6,389.4 744.6,389.5 744.6,389.7C744.6,389.9 744.4,389.9 744.3,389.9L741.9,389.9C741.8,389.9 741.7,389.9 741.7,389.7C741.7,389.5 741.8,389.5 741.9,389.5C742.5,389.5 742.6,389.1 742.7,388.6C743.1,386.6 743.4,384.5 743.7,382.5C743.8,382 743.7,381.7 743.1,381.6C742.9,381.6 742.8,381.5 742.9,381.3C742.9,381.1 743.1,381.1 743.2,381.1L745.9,381.1L745.9,381.5L746,381.5Z" style="fill:rgb(29,29,27);fill-rule:nonzero;"/>
        </g>
        <g transform="matrix(1,0,0,1,-621,-379.35)">
            <path d="M660.9,387.7C661.1,386.3 661.4,384.9 661.6,383.6C661.7,383.2 661.7,382.7 661.8,382.3C661.9,381.8 661.7,381.5 661.2,381.5C661,381.5 660.9,381.5 660.9,381.2C660.9,381 661.1,381 661.2,381L663.2,381C663.3,381 663.5,380.9 663.5,381.2C663.5,381.4 663.4,381.4 663.2,381.4C662.8,381.4 662.7,381.7 662.6,382C662.2,384.1 661.8,386.3 661.4,388.4C661.3,388.8 661.6,389 661.8,389.2C661.9,389.3 662,389.4 662,389.5C662,389.7 661.8,389.6 661.7,389.7C660.9,389.9 660.4,389.6 660,388.9C659,387.2 657.9,385.5 656.8,383.9C656.7,383.8 656.6,383.6 656.4,383.4C656.2,384.7 656,385.8 655.8,387C655.7,387.5 655.6,388 655.5,388.6C655.4,389.2 655.5,389.3 656.1,389.4C656.3,389.4 656.5,389.3 656.5,389.6C656.5,389.9 656.2,389.8 656.1,389.8L654,389.8C653.9,389.8 653.7,389.9 653.7,389.6C653.7,389.4 653.9,389.4 654,389.4C654.5,389.4 654.7,389.1 654.8,388.7C655.1,386.8 655.5,384.8 655.8,382.9C655.9,382.2 655.6,381.7 654.9,381.6C654.7,381.6 654.5,381.6 654.6,381.3C654.6,381 654.8,381.2 655,381.2C656.2,380.9 657,381.5 657.6,382.6C658.5,384.3 659.6,385.8 660.6,387.4C660.7,387.3 660.8,387.5 660.9,387.7" style="fill:rgb(29,29,27);fill-rule:nonzero;"/>
        </g>
        <g transform="matrix(1,0,0,1,-621,-379.35)">
            <path d="M722,384.8C722,384 721.9,383.3 721.4,382.6C720.6,381.4 719.2,381.1 718,382C716.4,383.2 715.7,386.1 716.5,387.9C717.3,389.5 719.1,389.9 720.4,388.6C721.5,387.6 721.9,386.2 722,384.8M714.7,386.2C714.7,384 716,382 717.9,381.3C719.4,380.7 720.9,380.8 722.2,381.8C723.4,382.8 723.6,384.1 723.4,385.6C723,388.1 721.2,389.9 718.9,390C716.4,390.1 714.7,388.6 714.7,386.2" style="fill:rgb(29,29,27);fill-rule:nonzero;"/>
        </g>
        <g transform="matrix(1,0,0,1,-621,-379.35)">
            <path d="M647,385C647,384.2 646.9,383.6 646.6,383C645.8,381.3 644,381 642.7,382.3C641.3,383.7 640.9,385.4 641.3,387.3C641.6,388.5 642.6,389.2 644.1,389.3C645.3,389.4 646,388.9 646.5,387.7C646.9,386.7 647,385.8 647,385M644.7,380.9C647.2,380.9 648.6,382.5 648.5,385C648.4,387.3 646.8,389.4 644.6,389.9C641.7,390.6 639.5,388.7 639.8,385.8C640,383 642.2,380.9 644.7,380.9" style="fill:rgb(29,29,27);fill-rule:nonzero;"/>
        </g>
        <g transform="matrix(1,0,0,1,-621,-379.35)">
            <path d="M731.4,385.5C732.5,385.2 733.3,384.8 733.7,384.3C734.1,383.8 734.3,383.2 734,382.6C733.7,382 733,381.6 732.4,381.6C732.2,381.6 732.1,381.6 732,381.8C731.9,383 731.7,384.2 731.4,385.5M731.8,381C732.6,381 733.3,380.9 734.1,381.1C735.3,381.4 735.8,382.5 735.2,383.6C734.8,384.4 734.2,384.9 733.4,385.3C733.2,385.4 733.1,385.4 733.2,385.7C733.7,386.6 734.2,387.5 734.8,388.2C735.2,388.6 735.6,389.1 736.2,389.2C736.4,389.2 736.4,389.3 736.4,389.5C736.4,389.7 736.3,389.7 736.1,389.7C735.3,389.8 734.7,389.5 734.1,389C733.2,388.2 732.7,387.2 732.1,386.2C732,386.1 732,385.8 731.8,385.9C731.6,386 731.2,386 731.2,386.3C731.1,387 731,387.8 730.8,388.5C730.7,388.8 730.8,389.1 731.2,389.1C731.4,389.1 731.5,389.2 731.4,389.4C731.4,389.6 731.3,389.6 731.1,389.6L728.8,389.6C728.7,389.6 728.5,389.6 728.5,389.4C728.5,389.2 728.6,389.2 728.7,389.2C729.2,389.2 729.3,388.8 729.4,388.4C729.8,386.3 730.1,384.2 730.5,382.1C730.6,381.6 730.4,381.4 729.9,381.3C729.7,381.3 729.6,381.2 729.6,381C729.6,380.8 729.8,380.8 729.9,380.8C730.8,381 731.3,381 731.8,381" style="fill:rgb(29,29,27);fill-rule:nonzero;"/>
        </g>
        <g transform="matrix(1,0,0,1,-621,-379.35)">
            <path d="M681.4,385.3C683.1,385.5 685.1,384.2 685.5,382.7C685.6,382.4 685.7,382.1 685.4,381.8C685.2,381.6 684.8,381.6 684.5,381.7C683.2,382.1 681.6,383.8 681.4,385.3M679.8,387C679.8,384.3 682,381.5 684.7,380.9C684.9,380.9 685,380.8 685.2,380.8C686.5,380.8 687.2,381.7 686.8,382.9C686.6,383.6 686.1,384.2 685.5,384.6C684.4,385.4 683.1,385.8 681.8,385.9C681.3,385.9 681.2,386.1 681.1,386.6C681.1,388.3 682.1,389.2 683.7,388.8C684.5,388.6 685.2,388.3 686,387.9C686.2,387.8 686.4,387.7 686.5,388C686.6,388.3 686.4,388.3 686.3,388.4C685.3,389 684.3,389.6 683.1,389.8C681.2,390.2 680,389.3 679.8,387.3L679.8,387" style="fill:rgb(29,29,27);fill-rule:nonzero;"/>
        </g>
        <g transform="matrix(1,0,0,1,-621,-379.35)">
            <path d="M694.5,389.9C694.2,389.9 693.9,389.8 693.7,389.8C693.4,389.7 693.1,389.6 692.7,389.8C692.4,389.9 692.2,389.8 692.3,389.4C692.4,388.9 692.4,388.4 692.5,387.8C692.5,387.6 692.5,387.4 692.8,387.4C693.1,387.4 693.1,387.6 693.1,387.8C693.4,389.1 694.5,389.6 695.5,389C696.3,388.5 696.5,387.4 695.7,386.6C695.3,386.1 694.7,385.7 694.3,385.3C693.7,384.7 693.3,384 693.4,383.1C693.6,381.5 695.2,380.6 696.7,381.1C697,381.2 697.3,381.3 697.6,381.1C697.8,381 698,381.1 697.9,381.4C697.8,381.9 697.8,382.4 697.7,382.9C697.7,383 697.7,383.2 697.5,383.3C697.3,383.3 697.2,383.2 697.1,383C697,382.7 696.9,382.4 696.7,382.2C696.3,381.7 695.8,381.5 695.3,381.6C694.8,381.8 694.4,382.4 694.5,383C694.6,383.6 694.8,384 695.2,384.4C695.5,384.7 695.8,384.9 696.1,385.2C697.2,386.1 697.5,387.1 697.2,388.1C696.9,389.1 695.8,389.8 694.5,389.9" style="fill:rgb(29,29,27);fill-rule:nonzero;"/>
        </g>
        <g transform="matrix(1,0,0,1,-621,-379.35)">
            <path d="M705.7,389.8C705.4,389.8 705.1,389.8 704.8,389.7C704.5,389.6 704.3,389.6 704,389.7C703.7,389.8 703.5,389.8 703.6,389.4C703.7,388.9 703.7,388.3 703.8,387.8C703.8,387.6 703.8,387.5 704.1,387.5C704.4,387.5 704.4,387.7 704.4,387.9C704.6,388.9 705.2,389.4 706,389.4C706.6,389.4 707.1,389.1 707.4,388.5C707.7,387.9 707.5,387.4 707.2,386.9C706.8,386.4 706.2,386 705.7,385.5C705.1,384.9 704.7,384.2 704.7,383.4C704.8,381.8 706.4,380.7 708,381.2C708.3,381.3 708.6,381.5 709,381.2C709.1,381.1 709.4,381.1 709.3,381.5C709.2,382 709.2,382.6 709.1,383.1C709.1,383.2 709.1,383.4 708.9,383.4C708.7,383.4 708.6,383.4 708.5,383.2C708.4,382.9 708.3,382.5 708,382.3C707.7,381.9 707.2,381.7 706.7,381.8C706.2,381.9 705.9,382.4 705.9,383C705.9,383.6 706.1,384.2 706.6,384.6C706.9,384.9 707.2,385.1 707.5,385.4C708.6,386.3 708.9,387.3 708.5,388.3C708.2,389.1 707,389.8 705.7,389.8" style="fill:rgb(29,29,27);fill-rule:nonzero;"/>
        </g>
        <g transform="matrix(1,0,0,1,-621,-379.35)">
            <path d="M672.7,379.4C672.6,380 672.5,380.5 672.4,381.1L674,381.1C674.3,381.1 674.4,381.2 674.4,381.5C674.4,381.8 674.3,381.9 674,381.9L672.6,381.9C672.4,381.9 672.2,381.9 672.2,382.2C671.9,383.9 671.5,385.6 671.2,387.3C671.2,387.5 671.2,387.7 671.1,387.9C671.1,388.8 671.5,389.2 672.4,388.9C673,388.7 673.5,388.4 674,388.1C674.1,388 674.2,388 674.3,388.1C674.4,388.2 674.5,388.3 674.3,388.4C673.4,389 672.6,389.7 671.5,389.9C670.6,390.1 670.1,389.7 669.9,388.8C669.7,387.9 670,387 670.2,386.1C670.4,384.8 670.7,383.5 671,382.2C671.1,381.9 671,381.8 670.7,381.8L670.2,381.8C669.9,381.8 669.8,381.8 669.7,381.4C669.7,381 669.9,381 670.2,381C671.2,381 671.2,381 671.4,380.1C671.7,379.3 671.7,379.3 672.7,379.4" style="fill:rgb(29,29,27);fill-rule:nonzero;"/>
        </g>
    </g>
</svg>
