<svg id="Capa_1" enable-background="new 0 0 510 510" height="512" viewBox="0 0 510 510" width="512" xmlns="http://www.w3.org/2000/svg" xmlns:xlink="http://www.w3.org/1999/xlink"><linearGradient id="SVGID_1_" gradientUnits="userSpaceOnUse" x1="218.652" x2="218.652" y1="470" y2="512.012"><stop offset="0" stop-color="#ffe177"/><stop offset="1" stop-color="#fe9738"/></linearGradient><linearGradient id="SVGID_2_" gradientUnits="userSpaceOnUse" x1="288.862" x2="288.862" y1="519" y2="413.981"><stop offset="0" stop-color="#fe9738" stop-opacity="0"/><stop offset="1" stop-color="#fe7701"/></linearGradient><linearGradient id="lg1"><stop offset="0" stop-color="#ffdcbd"/><stop offset="1" stop-color="#ffa9b1"/></linearGradient><linearGradient id="SVGID_3_" gradientUnits="userSpaceOnUse" x1="43.36" x2="89.385" xlink:href="#lg1" y1="241.579" y2="287.604"/><linearGradient id="SVGID_4_" gradientTransform="matrix(-1 0 0 1 -1276.778 0)" gradientUnits="userSpaceOnUse" x1="-1709.684" x2="-1663.659" xlink:href="#lg1" y1="241.579" y2="287.604"/><linearGradient id="lg2"><stop offset="0" stop-color="#ffc2b5" stop-opacity="0"/><stop offset="1" stop-color="#f89580"/></linearGradient><linearGradient id="SVGID_5_" gradientUnits="userSpaceOnUse" x1="435.758" x2="413.758" xlink:href="#lg2" y1="272.178" y2="269.511"/><linearGradient id="SVGID_6_" gradientUnits="userSpaceOnUse" x1="64.821" x2="411.445" xlink:href="#lg1" y1="250.337" y2="250.337"/><linearGradient id="SVGID_7_" gradientUnits="userSpaceOnUse" x1="123.407" x2="66.407" xlink:href="#lg2" y1="257.042" y2="272.042"/><linearGradient id="SVGID_8_" gradientUnits="userSpaceOnUse" x1="238.133" x2="238.133" xlink:href="#lg2" y1="228.5" y2="328.505"/><linearGradient id="lg3"><stop offset="0" stop-color="#537983"/><stop offset="1" stop-color="#3e5959"/></linearGradient><linearGradient id="SVGID_9_" gradientUnits="userSpaceOnUse" x1="139.8" x2="188.355" xlink:href="#lg3" y1="238.666" y2="238.666"/><linearGradient id="SVGID_10_" gradientUnits="userSpaceOnUse" x1="287.91" x2="336.466" xlink:href="#lg3" y1="238.666" y2="238.666"/><linearGradient id="lg4"><stop offset="0" stop-color="#9cf8d2"/><stop offset=".4165" stop-color="#5eccb2"/><stop offset="1" stop-color="#008b81"/></linearGradient><linearGradient id="SVGID_11_" gradientUnits="userSpaceOnUse" x1="217.393" x2="338.133" xlink:href="#lg4" y1="283.409" y2="523.059"/><linearGradient id="lg5"><stop offset="0" stop-color="#5de1c4" stop-opacity="0"/><stop offset="1" stop-color="#037e73"/></linearGradient><linearGradient id="SVGID_12_" gradientUnits="userSpaceOnUse" x1="180.131" x2="357.464" xlink:href="#lg5" y1="288.279" y2="490.279"/><linearGradient id="SVGID_13_" gradientUnits="userSpaceOnUse" x1="233.569" x2="244.902" xlink:href="#lg5" y1="395.821" y2="312.487"/><linearGradient id="SVGID_14_" gradientUnits="userSpaceOnUse" x1="302.216" x2="414.98" xlink:href="#lg3" y1="43.083" y2="155.847"/><linearGradient id="lg6"><stop offset="0" stop-color="#edf5ff"/><stop offset="1" stop-color="#c7e9ff"/></linearGradient><linearGradient id="SVGID_15_" gradientUnits="userSpaceOnUse" x1="51.716" x2="75.201" xlink:href="#lg6" y1="258.167" y2="258.167"/><linearGradient id="SVGID_16_" gradientUnits="userSpaceOnUse" x1="400.383" x2="430.501" xlink:href="#lg6" y1="258.167" y2="258.167"/><linearGradient id="SVGID_17_" gradientUnits="userSpaceOnUse" x1="238.133" x2="238.133" xlink:href="#lg6" y1="276.865" y2="318.336"/><linearGradient id="SVGID_18_" gradientUnits="userSpaceOnUse" x1="238.133" x2="238.133" xlink:href="#lg6" y1="287.528" y2="268.379"/><linearGradient id="SVGID_19_" gradientUnits="userSpaceOnUse" x1="238.133" x2="238.133" xlink:href="#lg5" y1="402.833" y2="455.706"/><linearGradient id="SVGID_20_" gradientUnits="userSpaceOnUse" x1="113.066" x2="259.353" xlink:href="#lg3" y1="46.383" y2="192.67"/><linearGradient id="SVGID_21_" gradientUnits="userSpaceOnUse" x1="352.829" x2="475.86" xlink:href="#lg6" y1="352.829" y2="475.86"/><linearGradient id="SVGID_22_" gradientUnits="userSpaceOnUse" x1="414.504" x2="414.504" y1="456.667" y2="503.338"><stop offset="0" stop-color="#fff" stop-opacity="0"/><stop offset=".3432" stop-color="#cde0f3" stop-opacity=".343"/><stop offset=".7872" stop-color="#92bae4" stop-opacity=".787"/><stop offset="1" stop-color="#7bacdf"/></linearGradient><linearGradient id="SVGID_23_" gradientUnits="userSpaceOnUse" x1="489.484" x2="430.567" y1="471.516" y2="412.599"><stop offset="0" stop-color="#7bacdf" stop-opacity="0"/><stop offset="1" stop-color="#7bacdf"/></linearGradient><linearGradient id="SVGID_24_" gradientUnits="userSpaceOnUse" x1="382.016" x2="466.64" xlink:href="#lg4" y1="364.048" y2="448.671"/><g><g><path d="m310.032 434.753c-44.52-28.316-99.279-28.316-143.797-.001-10.674 6.789-22.068 12.035-33.9 15.606-5.637 1.701-11.649 2.404-17.673 2.456-42.445.367-81.693 14.267-110.326 36.98-8.417 6.677-3.767 20.206 6.975 20.206h401.579c27.674 0 33.966-38.825 7.697-47.532-18.326-6.074-38.274-9.475-58.983-9.653-6.025-.052-12.037-.755-17.674-2.456-11.832-3.571-23.224-8.817-33.898-15.606z" fill="url(#SVGID_1_)"/><path d="m420.587 462.468c-18.326-6.074-38.274-9.475-58.983-9.653-6.025-.052-12.037-.755-17.674-2.456-11.831-3.57-23.224-8.816-33.898-15.605h-.001c-44.519-28.315-99.278-28.315-143.796 0-8.22 5.228-16.869 9.531-25.814 12.868l62.379 62.378h210.09c27.674 0 33.966-38.825 7.697-47.532z" fill="url(#SVGID_2_)"/><g><g><path d="m26.522 266.319c0-27.061 18.785-49.735 44.026-55.693 6.747-1.593 13.197 3.625 13.197 10.557v90.272c0 6.932-6.45 12.15-13.197 10.557-25.242-5.959-44.026-28.632-44.026-55.693z" fill="url(#SVGID_3_)"/><path d="m449.744 266.319c0-27.061-18.785-49.735-44.026-55.693-6.747-1.593-13.197 3.625-13.197 10.557v90.272c0 6.932 6.45 12.15 13.197 10.557 25.242-5.959 44.026-28.632 44.026-55.693z" fill="url(#SVGID_4_)"/><path d="m449.743 266.32c0 27.06-18.78 49.73-44.02 55.69-6.75 1.59-13.2-3.62-13.2-10.56v-4.52c.48.17.97.31 1.48.4 5.43 1 10.65-2.58 11.66-8.01l14.6-78.66c.12-.62.17-1.23.17-1.84 0-.92-.13-1.82-.37-2.68 17.69 9.74 29.68 28.56 29.68 50.18z" fill="url(#SVGID_5_)"/></g><path d="m238.133 449.174c-83.436 0-153.572-40.322-162.952-123.229l-9.24-81.674c-11.627-102.765 68.77-192.771 172.192-192.771 103.422 0 183.818 90.006 172.192 192.772l-9.24 81.674c-9.381 82.906-79.516 123.228-162.952 123.228z" fill="url(#SVGID_6_)"/><path d="m68.133 212.167 94.083 94.083h-94.083z" fill="url(#SVGID_7_)"/><g><path d="m247.362 337.944h-18.458c-15.383 0-27.029-13.901-24.335-29.046l10.581-84.398h45.966l10.581 84.398c2.694 15.145-8.953 29.046-24.335 29.046z" fill="url(#SVGID_8_)"/><g><path d="m164.077 269.169c-13.408 0-24.278-10.87-24.278-24.278v-12.45c0-13.408 10.87-24.278 24.278-24.278 13.408 0 24.278 10.87 24.278 24.278v12.45c0 13.408-10.869 24.278-24.278 24.278z" fill="url(#SVGID_9_)"/><path d="m312.188 269.169c-13.408 0-24.278-10.87-24.278-24.278v-12.45c0-13.408 10.87-24.278 24.278-24.278 13.408 0 24.278 10.87 24.278 24.278v12.45c0 13.408-10.869 24.278-24.278 24.278z" fill="url(#SVGID_10_)"/></g></g><path d="m411.293 302.57-2.97 26.24c-1.96 17.39-6.49 33.92-13.18 49.24-9.95 22.83-24.7 42.98-42.91 59.24-.049.043-.097.087-.146.13-8.958 7.983-20.355 12.666-32.311 13.688-54.364 4.651-108.92 4.652-163.278.001-11.982-1.025-23.396-5.735-32.371-13.74-18.251-16.277-33.032-36.444-43.004-59.32-6.69-15.32-11.22-31.85-13.18-49.24l-2.87-25.35c.003-.004.005-.007.008-.011 16.551-2.804 45.514-5.177 62.152-7.109 16.14-1.88 31.67-6.16 45.81-12.58h.01c40.3-18.27 89.86-18.27 130.16 0l.01.01c14.14 6.41 29.67 10.69 45.81 12.57 14.86 1.731 44.35 3.801 62.26 6.231z" fill="url(#SVGID_11_)"/><g><path d="m372.316 330.496c-19.524-1.114-38.321-3.656-55.432-7.464h-.001c-48.762-10.849-108.739-10.849-157.501 0-17.111 3.807-35.908 6.35-55.432 7.464-11.847.676-23.681 1.461-35.504 2.318 2.172 15.925 6.502 31.098 12.676 45.237 9.972 22.876 24.753 43.043 43.004 59.32 1.132 1.01 2.304 1.967 3.51 2.871 73.557 3.454 147.446 3.454 221.003 0 1.184-.889 2.334-1.829 3.447-2.82.049-.043.097-.087.146-.13 18.21-16.26 32.96-36.41 42.91-59.24 6.174-14.139 10.504-29.312 12.676-45.237-11.822-.859-23.655-1.643-35.502-2.319z" fill="url(#SVGID_12_)"/><path d="m372.316 361.594c-19.524-.398-38.321-1.306-55.432-2.666h-.001c-48.762-3.875-108.739-3.875-157.501 0-17.111 1.36-35.908 2.268-55.432 2.666-9.61.196-19.208.426-28.801.668 1.74 5.389 3.732 10.658 5.973 15.788 3.346 7.675 7.244 15.036 11.621 22.056 96.674 2.138 194.105 2.138 290.779 0 4.378-7.021 8.276-14.383 11.62-22.056 2.24-5.13 4.232-10.4 5.973-15.788-9.592-.242-19.189-.472-28.799-.668z" fill="url(#SVGID_13_)"/></g><path d="m335.245 52.388c-11.597 11.597-18.112 27.326-18.112 43.727v14.885c0 25.932 10.301 50.801 28.638 69.138l29.075 29.075c7.227 7.227 17.029 11.287 27.25 11.287 21.284 0 38.537-17.254 38.537-38.537v-43.599c0-32.247-12.81-63.173-35.612-85.976-19.268-19.268-50.508-19.268-69.776 0z" fill="url(#SVGID_14_)"/><g><path d="m85.267 295.669-14.604-78.656c-1.008-5.43-6.227-9.015-11.658-8.006-5.43 1.008-9.015 6.227-8.006 11.658l14.604 78.656c1.008 5.43 6.227 9.015 11.658 8.006 5.43-1.009 9.014-6.228 8.006-11.658z" fill="url(#SVGID_15_)"/><path d="m390.999 295.669 14.604-78.656c1.008-5.43 6.227-9.015 11.658-8.006 5.43 1.008 9.015 6.227 8.006 11.658l-14.604 78.656c-1.008 5.43-6.227 9.015-11.658 8.006-5.43-1.009-9.015-6.228-8.006-11.658z" fill="url(#SVGID_16_)"/></g><g><path d="m402.831 296.068c-16.971-2.805-33.98-5.172-51.015-7.105-16.541-1.877-32.466-6.16-46.963-12.573h-.001c-41.312-18.276-92.126-18.276-133.438 0-14.497 6.413-30.422 10.696-46.963 12.573-17.035 1.933-34.044 4.3-51.016 7.105-6.952 1.149-11.91 5.895-11.91 11.369 0 4.094.358 8.016.79 11.254.589 4.42 5.784 7.509 11.336 6.766 16.284-2.178 36.795-4.061 50.8-5.65 16.541-1.877 32.466-6.16 46.963-12.573 41.312-18.275 92.126-18.275 133.438 0h.001c14.497 6.413 30.422 10.696 46.963 12.573 14.005 1.589 34.515 3.472 50.799 5.65 5.552.743 10.747-2.347 11.336-6.766.431-3.237.79-7.159.79-11.254 0-5.474-4.958-10.22-11.91-11.369z" fill="url(#SVGID_17_)"/><path d="m207.099 290.03c20.124-4.144 41.943-4.144 62.068 0 5.784 1.191 11.429-2.254 11.429-6.972v-2.856c0-3.159-2.603-5.959-6.428-6.892-23.126-5.643-48.944-5.643-72.069 0-3.825.933-6.428 3.732-6.428 6.892v2.856c-.001 4.718 5.644 8.163 11.428 6.972z" fill="url(#SVGID_18_)"/></g><path d="m81.176 378.167c9.972 22.828 24.731 42.954 42.951 59.203 8.975 8.004 20.389 12.715 32.371 13.74 54.358 4.651 108.913 4.65 163.278-.001 11.955-1.023 23.353-5.705 32.311-13.688.049-.043.097-.087.146-.13 18.179-16.232 32.908-36.342 42.857-59.123h-313.914z" fill="url(#SVGID_19_)"/><path d="m56.084 202.18c24.16 24.16 63.331 24.16 87.491 0 31.552-31.552 74.346-49.278 118.968-49.278 8.437 0 16.527 3.351 22.493 9.317 12.423 12.423 32.563 12.423 44.986 0l5.096-5.096c28.019-28.019 28.019-73.447 0-101.466-35.636-35.637-83.969-55.657-134.366-55.657-47.162 0-92.391 18.735-125.74 52.083-17.087 17.087-45.701 13.473-58.003-7.326-3.585-6.06-12.876-3.518-12.876 3.523v28.478c0 47.042 18.687 92.158 51.951 125.422z" fill="url(#SVGID_20_)"/></g></g><g><circle cx="414.504" cy="414.504" fill="url(#SVGID_21_)" r="95.496"/><path d="m320.613 432c8.219 44.384 47.127 78 93.891 78s85.672-33.616 93.891-78z" fill="url(#SVGID_22_)"/><path d="m508.426 397.171-28.087-28.173c-.338-.338-.698-.638-1.051-.949l-93.323 93.323 46.865 46.865c43.972-8.548 77.169-47.26 77.169-93.732.001-5.921-.542-11.713-1.573-17.334z" fill="url(#SVGID_23_)"/><path d="m447.284 367.998-39.956 39.956c-2.946 2.946-7.722 2.946-10.668 0l-14.937-14.937c-8.852-8.852-23.204-8.852-32.055 0-8.852 8.852-8.852 23.204 0 32.055l35.681 35.681c9.193 9.193 24.097 9.193 33.289 0l60.701-60.701c8.852-8.852 8.852-23.204 0-32.055-8.851-8.851-23.203-8.851-32.055.001z" fill="url(#SVGID_24_)"/></g></g></svg>